<svg data-v-423bf9ae="" xmlns="http://www.w3.org/2000/svg" viewBox="0 0 372.90698705054433 60" class="font"><!----><!----><!----><g data-v-423bf9ae="" id="102717f6-e021-4834-bdd4-1e198bf35dda" fill="white" transform="matrix(4.983388900756836,0,0,4.983388900756836,-4.136230945587158,-15.847176551818848)"><path d="M3.63 13.02L3.63 13.02L2.90 13.02L2.90 13.02Q1.93 13.02 1.38 12.47L1.38 12.47L1.38 12.47Q0.83 11.93 0.83 10.95L0.83 10.95L0.83 7.95L0.83 7.95Q0.83 6.97 1.38 6.43L1.38 6.43L1.38 6.43Q1.93 5.88 2.90 5.88L2.90 5.88L5.94 5.88L5.94 5.88Q6.13 5.88 6.13 6.08L6.13 6.08L6.13 12.82L6.13 12.82Q6.13 13.02 5.94 13.02L5.94 13.02L5.31 13.02L5.31 13.02Q5.11 13.02 5.11 12.82L5.11 12.82L5.11 12.28L5.05 12.28L5.05 12.28Q4.70 13.02 3.63 13.02ZM5.11 10.84L5.11 10.84L5.11 6.90L5.11 6.90Q5.11 6.78 4.97 6.78L4.97 6.78L3.01 6.78L3.01 6.78Q1.85 6.78 1.85 7.99L1.85 7.99L1.85 10.91L1.85 10.91Q1.85 12.12 3.01 12.12L3.01 12.12L3.81 12.12L3.81 12.12Q4.44 12.12 4.77 11.79L4.77 11.79L4.77 11.79Q5.11 11.45 5.11 10.84ZM10.79 13.02L10.79 13.02L10.01 13.02L10.01 13.02Q9.06 13.02 8.53 12.47L8.53 12.47L8.53 12.47Q7.99 11.93 7.99 10.95L7.99 10.95L7.99 6.08L7.99 6.08Q7.99 5.88 8.19 5.88L8.19 5.88L8.82 5.88L8.82 5.88Q9.02 5.88 9.02 6.08L9.02 6.08L9.02 10.91L9.02 10.91Q9.02 12.12 10.18 12.12L10.18 12.12L10.98 12.12L10.98 12.12Q11.61 12.12 11.94 11.79L11.94 11.79L11.94 11.79Q12.28 11.45 12.28 10.84L12.28 10.84L12.28 6.08L12.28 6.08Q12.28 5.88 12.47 5.88L12.47 5.88L13.10 5.88L13.10 5.88Q13.30 5.88 13.30 6.08L13.30 6.08L13.30 12.82L13.30 12.82Q13.30 13.02 13.10 13.02L13.10 13.02L12.47 13.02L12.47 13.02Q12.28 13.02 12.28 12.82L12.28 12.82L12.28 12.28L12.22 12.28L12.22 12.28Q11.87 13.02 10.79 13.02ZM15.50 6.78L15.50 6.78L14.73 6.78L14.73 6.78Q14.53 6.78 14.53 6.59L14.53 6.59L14.53 6.08L14.53 6.08Q14.53 5.88 14.73 5.88L14.73 5.88L15.50 5.88L15.50 5.88Q15.64 5.88 15.64 5.75L15.64 5.75L15.64 4.55L15.64 4.55Q15.64 4.35 15.83 4.35L15.83 4.35L16.46 4.35L16.46 4.35Q16.65 4.35 16.65 4.55L16.65 4.55L16.65 5.75L16.65 5.75Q16.65 5.88 16.80 5.88L16.80 5.88L18.28 5.88L18.28 5.88Q18.49 5.88 18.49 6.08L18.49 6.08L18.49 6.59L18.49 6.59Q18.49 6.78 18.28 6.78L18.28 6.78L16.80 6.78L16.80 6.78Q16.65 6.78 16.65 6.90L16.65 6.90L16.65 10.93L16.65 10.93Q16.65 12.12 17.88 12.12L17.88 12.12L18.42 12.12L18.42 12.12Q18.63 12.12 18.63 12.32L18.63 12.32L18.63 12.84L18.63 12.84Q18.63 13.02 18.42 13.02L18.42 13.02L17.75 13.02L17.75 13.02Q16.79 13.02 16.21 12.48L16.21 12.48L16.21 12.48Q15.64 11.94 15.64 10.98L15.64 10.98L15.64 6.90L15.64 6.90Q15.64 6.78 15.50 6.78ZM23.25 13.02L23.25 13.02L22.05 13.02L22.05 13.02Q21.08 13.02 20.53 12.47L20.53 12.47L20.53 12.47Q19.98 11.93 19.98 10.95L19.98 10.95L19.98 7.95L19.98 7.95Q19.98 6.97 20.53 6.43L20.53 6.43L20.53 6.43Q21.08 5.88 22.05 5.88L22.05 5.88L23.25 5.88L23.25 5.88Q24.22 5.88 24.77 6.43L24.77 6.43L24.77 6.43Q25.33 6.97 25.33 7.95L25.33 7.95L25.33 10.95L25.33 10.95Q25.33 11.93 24.77 12.47L24.77 12.47L24.77 12.47Q24.22 13.02 23.25 13.02ZM22.16 12.12L22.16 12.12L23.14 12.12L23.14 12.12Q24.32 12.12 24.32 10.92L24.32 10.92L24.32 7.98L24.32 7.98Q24.32 6.78 23.14 6.78L23.14 6.78L22.16 6.78L22.16 6.78Q20.99 6.78 20.99 7.98L20.99 7.98L20.99 10.92L20.99 10.92Q20.99 12.12 22.16 12.12ZM28.42 12.12L28.42 12.12L30.77 12.12L30.77 12.12Q31.95 12.12 31.95 10.91L31.95 10.91L31.95 6.13L31.95 6.13Q31.95 4.91 30.77 4.91L30.77 4.91L28.42 4.91L28.42 4.91Q28.28 4.91 28.28 5.04L28.28 5.04L28.28 12.00L28.28 12.00Q28.28 12.12 28.42 12.12ZM27.26 12.82L27.26 12.82L27.26 4.21L27.26 4.21Q27.26 4.02 27.45 4.02L27.45 4.02L30.90 4.02L30.90 4.02Q31.86 4.02 32.42 4.57L32.42 4.57L32.42 4.57Q32.97 5.12 32.97 6.09L32.97 6.09L32.97 10.95L32.97 10.95Q32.97 11.91 32.42 12.47L32.42 12.47L32.42 12.47Q31.86 13.02 30.90 13.02L30.90 13.02L27.45 13.02L27.45 13.02Q27.26 13.02 27.26 12.82ZM39.80 13.02L39.80 13.02L36.83 13.02L36.83 13.02Q35.87 13.02 35.31 12.47L35.31 12.47L35.31 12.47Q34.76 11.93 34.76 10.95L34.76 10.95L34.76 7.95L34.76 7.95Q34.76 6.97 35.31 6.43L35.31 6.43L35.31 6.43Q35.87 5.88 36.83 5.88L36.83 5.88L38.01 5.88L38.01 5.88Q38.98 5.88 39.52 6.43L39.52 6.43L39.52 6.43Q40.07 6.97 40.07 7.95L40.07 7.95L40.07 9.73L40.07 9.73Q40.07 9.94 39.87 9.94L39.87 9.94L35.91 9.94L35.91 9.94Q35.77 9.94 35.77 10.07L35.77 10.07L35.77 10.92L35.77 10.92Q35.77 12.14 36.95 12.14L36.95 12.14L39.80 12.14L39.80 12.14Q40.00 12.14 40.00 12.33L40.00 12.33L40.00 12.84L40.00 12.84Q40.00 13.02 39.80 13.02ZM35.91 9.20L35.91 9.20L38.93 9.20L38.93 9.20Q39.07 9.20 39.07 9.06L39.07 9.06L39.07 7.98L39.07 7.98Q39.07 6.78 37.90 6.78L37.90 6.78L36.95 6.78L36.95 6.78Q35.77 6.78 35.77 7.98L35.77 7.98L35.77 9.06L35.77 9.06Q35.77 9.20 35.91 9.20ZM42.62 15.06L42.62 15.06L41.99 15.06L41.99 15.06Q41.79 15.06 41.79 14.87L41.79 14.87L41.79 6.08L41.79 6.08Q41.79 5.88 41.99 5.88L41.99 5.88L42.62 5.88L42.62 5.88Q42.81 5.88 42.81 6.08L42.81 6.08L42.81 6.62L42.87 6.62L42.87 6.62Q43.22 5.88 44.30 5.88L44.30 5.88L45.14 5.88L45.14 5.88Q46.09 5.88 46.61 6.43L46.61 6.43L46.61 6.43Q47.14 6.97 47.14 7.95L47.14 7.95L47.14 10.95L47.14 10.95Q47.14 11.93 46.61 12.47L46.61 12.47L46.61 12.47Q46.09 13.02 45.14 13.02L45.14 13.02L44.30 13.02L44.30 13.02Q43.22 13.02 42.87 12.28L42.87 12.28L42.81 12.28L42.81 14.87L42.81 14.87Q42.81 15.06 42.62 15.06ZM44.11 12.12L44.11 12.12L44.94 12.12L44.94 12.12Q46.13 12.12 46.13 10.91L46.13 10.91L46.13 7.99L46.13 7.99Q46.13 6.78 44.94 6.78L44.94 6.78L44.11 6.78L44.11 6.78Q43.48 6.78 43.15 7.11L43.15 7.11L43.15 7.11Q42.81 7.45 42.81 8.06L42.81 8.06L42.81 10.84L42.81 10.84Q42.81 11.45 43.15 11.79L43.15 11.79L43.15 11.79Q43.48 12.12 44.11 12.12ZM49.83 13.02L49.83 13.02L49.20 13.02L49.20 13.02Q49 13.02 49 12.82L49 12.82L49 3.37L49 3.37Q49 3.18 49.20 3.18L49.20 3.18L49.83 3.18L49.83 3.18Q50.02 3.18 50.02 3.37L50.02 3.37L50.02 12.82L50.02 12.82Q50.02 13.02 49.83 13.02ZM55.16 13.02L55.16 13.02L53.96 13.02L53.96 13.02Q52.99 13.02 52.44 12.47L52.44 12.47L52.44 12.47Q51.88 11.93 51.88 10.95L51.88 10.95L51.88 7.95L51.88 7.95Q51.88 6.97 52.44 6.43L52.44 6.43L52.44 6.43Q52.99 5.88 53.96 5.88L53.96 5.88L55.16 5.88L55.16 5.88Q56.13 5.88 56.68 6.43L56.68 6.43L56.68 6.43Q57.23 6.97 57.23 7.95L57.23 7.95L57.23 10.95L57.23 10.95Q57.23 11.93 56.68 12.47L56.68 12.47L56.68 12.47Q56.13 13.02 55.16 13.02ZM54.07 12.12L54.07 12.12L55.05 12.12L55.05 12.12Q56.22 12.12 56.22 10.92L56.22 10.92L56.22 7.98L56.22 7.98Q56.22 6.78 55.05 6.78L55.05 6.78L54.07 6.78L54.07 6.78Q52.89 6.78 52.89 7.98L52.89 7.98L52.89 10.92L52.89 10.92Q52.89 12.12 54.07 12.12ZM59.60 15.22L59.60 15.22L58.98 15.22L58.98 15.22Q58.79 15.22 58.79 15.02L58.79 15.02L58.79 14.50L58.79 14.50Q58.79 14.31 58.98 14.31L58.98 14.31L59.33 14.31L59.33 14.31Q60.23 14.31 60.59 13.80L60.59 13.80L60.59 13.80Q60.89 13.40 61.12 12.64L61.12 12.64L60.72 12.64L60.72 12.64Q60.55 12.64 60.48 12.45L60.48 12.45L58.42 6.08L58.42 6.08Q58.37 5.88 58.56 5.88L58.56 5.88L59.23 5.88L59.23 5.88Q59.42 5.88 59.47 6.08L59.47 6.08L61.28 11.84L61.33 11.84L63.14 6.08L63.14 6.08Q63.18 5.88 63.36 5.88L63.36 5.88L64.01 5.88L64.01 5.88Q64.25 5.88 64.18 6.09L64.18 6.09L62.09 12.74L62.09 12.74Q61.74 13.93 61.20 14.57L61.20 14.57L61.20 14.57Q60.66 15.22 59.60 15.22ZM70.41 13.02L70.41 13.02L67.44 13.02L67.44 13.02Q66.47 13.02 65.92 12.47L65.92 12.47L65.92 12.47Q65.37 11.93 65.37 10.95L65.37 10.95L65.37 7.95L65.37 7.95Q65.37 6.97 65.92 6.43L65.92 6.43L65.92 6.43Q66.47 5.88 67.44 5.88L67.44 5.88L68.61 5.88L68.61 5.88Q69.58 5.88 70.13 6.43L70.13 6.43L70.13 6.43Q70.67 6.97 70.67 7.95L70.67 7.95L70.67 9.73L70.67 9.73Q70.67 9.94 70.48 9.94L70.48 9.94L66.51 9.94L66.51 9.94Q66.37 9.94 66.37 10.07L66.37 10.07L66.37 10.92L66.37 10.92Q66.37 12.14 67.55 12.14L67.55 12.14L70.41 12.14L70.41 12.14Q70.60 12.14 70.60 12.33L70.60 12.33L70.60 12.84L70.60 12.84Q70.60 13.02 70.41 13.02ZM66.51 9.20L66.51 9.20L69.54 9.20L69.54 9.20Q69.68 9.20 69.68 9.06L69.68 9.06L69.68 7.98L69.68 7.98Q69.68 6.78 68.50 6.78L68.50 6.78L67.55 6.78L67.55 6.78Q66.37 6.78 66.37 7.98L66.37 7.98L66.37 9.06L66.37 9.06Q66.37 9.20 66.51 9.20ZM73.22 13.02L73.22 13.02L72.59 13.02L72.59 13.02Q72.39 13.02 72.39 12.82L72.39 12.82L72.39 6.08L72.39 6.08Q72.39 5.88 72.59 5.88L72.59 5.88L73.22 5.88L73.22 5.88Q73.42 5.88 73.42 6.08L73.42 6.08L73.42 6.64L73.47 6.64L73.47 6.64Q73.61 6.33 74.00 6.10L74.00 6.10L74.00 6.10Q74.40 5.88 74.93 5.88L74.93 5.88L75.47 5.88L75.47 5.88Q75.66 5.88 75.66 6.08L75.66 6.08L75.66 6.59L75.66 6.59Q75.66 6.69 75.61 6.74L75.61 6.74L75.61 6.74Q75.57 6.79 75.47 6.78L75.47 6.78L74.72 6.78L74.72 6.78Q74.09 6.78 73.75 7.15L73.75 7.15L73.75 7.15Q73.42 7.53 73.42 8.19L73.42 8.19L73.42 12.82L73.42 12.82Q73.42 13.02 73.22 13.02Z"></path></g><!----><!----></svg>